<svg xmlns="http://www.w3.org/2000/svg" width="64" height="64" viewBox="0 0 200 200"><defs><linearGradient id="b" x1="0%" y1="0%" y2="100%"><stop offset="0%" stop-color="#81d4fa"/><stop offset="100%" stop-color="#29b6f6"/></linearGradient><linearGradient id="c" x1="0%" y1="0%" y2="0%"><stop offset="0%" stop-color="#b3e5fc"/><stop offset="100%" stop-color="#4fc3f7"/></linearGradient><linearGradient id="d" x1="0%" y1="0%" y2="100%"><stop offset="0%" stop-opacity=".4" stop-color="#fff"/><stop offset="100%" stop-opacity="0" stop-color="#fff"/></linearGradient><filter id="a" x="-20%" y="-20%" width="140%" height="140%"><feGaussianBlur in="SourceAlpha" stdDeviation="2"/><feOffset dx="2" dy="2" result="offsetblur"/><feComponentTransfer><feFuncA type="linear" slope=".3"/></feComponentTransfer><feMerge><feMergeNode/><feMergeNode in="SourceGraphic"/></feMerge></filter></defs><path d="M48 48c0-5 5-10 10-10h100c5 0 10 5 10 10v120c0 5-5 10-10 10H58c-5 0-10-5-10-10z" fill="#0288D1" opacity=".2"/><g filter="url(#a)" transform="rotate(-2 100 100)"><path d="M40 40c0-5 5-10 10-10h100c5 0 10 5 10 10v120c0 5-5 10-10 10H50c-5 0-10-5-10-10z" fill="url(#b)"><animate attributeName="d" dur="4s" repeatCount="indefinite" values="M40 40 C 40 35, 45 30, 50 30 L 150 30 C 155 30, 160 35, 160 40 L 160 160 C 160 165, 155 170, 150 170 L 50 170 C 45 170, 40 165, 40 160 Z; M38 40 C 38 35, 43 28, 48 28 L 148 28 C 153 28, 158 35, 158 40 L 158 160 C 158 165, 153 172, 148 172 L 48 172 C 43 172, 38 165, 38 160 Z; M40 40 C 40 35, 45 30, 50 30 L 150 30 C 155 30, 160 35, 160 40 L 160 160 C 160 165, 155 170, 150 170 L 50 170 C 45 170, 40 165, 40 160 Z"/></path><path d="M45 40h110" stroke="url(#c)" opacity=".5"/><path d="M45 100h110" stroke="url(#c)" opacity=".3"/><path d="M40 40c0-5 5-10 10-10h100c5 0 10 5 10 10v40C100 60 60 70 40 80z" fill="url(#d)" opacity=".4"><animate attributeName="opacity" values="0.4;0.2;0.4" dur="3s" repeatCount="indefinite"/></path><g stroke="#FFF" stroke-linecap="round"><path stroke-width="3" opacity=".8" d="M60 70h80"><animate attributeName="x2" values="140;135;140" dur="4s" repeatCount="indefinite" keySplines="0.4 0 0.2 1; 0.4 0 0.2 1" calcMode="spline"/></path><path stroke-width="2" opacity=".6" d="M60 90h60"><animate attributeName="x2" values="120;115;120" dur="3.5s" repeatCount="indefinite" keySplines="0.4 0 0.2 1; 0.4 0 0.2 1" calcMode="spline"/></path><path stroke-width="2" opacity=".4" d="M60 110h40"><animate attributeName="x2" values="100;95;100" dur="3s" repeatCount="indefinite" keySplines="0.4 0 0.2 1; 0.4 0 0.2 1" calcMode="spline"/></path></g></g><g filter="url(#softGlow)" transform="matrix(.5 0 0 .5 40 130)"><path d="M0 0q80-40 160 0t80 0" fill="none" stroke="#E1F5FE" stroke-width="2" stroke-dasharray="4,4" opacity=".4"><animate attributeName="d" dur="3s" repeatCount="indefinite" values="M0 0 Q 80 -40, 160 0 T 240 0; M0 0 Q 80 -50, 160 -10 T 240 0; M0 0 Q 80 -40, 160 0 T 240 0"/></path><g><animateMotion dur="4s" repeatCount="indefinite" path="M0 0 Q 80 -40, 160 0 T 240 0" keySplines="0.4 0 0.2 1; 0.4 0 0.2 1" calcMode="spline"/><animateTransform attributeName="transform" type="rotate" values="0;-15;0;15;0" dur="4s" repeatCount="indefinite" keySplines="0.4 0 0.2 1; 0.4 0 0.2 1" calcMode="spline"/><path d="M0 0l25-12v24z" fill="#FFF" stroke="#B3E5FC" stroke-width="1.5"/></g><g><animateMotion dur="4s" repeatCount="indefinite" path="M0 0 Q 80 -40, 160 0 T 240 0" keySplines="0.4 0 0.2 1; 0.4 0 0.2 1" calcMode="spline"/><circle r="1" fill="#E3F2FD" opacity=".6"><animate attributeName="opacity" values="0.6;0;0.6" dur="1s" repeatCount="indefinite"/></circle></g></g><g fill="#E1F5FE"><circle cx="160" cy="40" r="3" opacity=".6"><animate attributeName="cy" values="40;35;40" dur="2s" repeatCount="indefinite"/><animate attributeName="opacity" values="0.6;0.2;0.6" dur="2s" repeatCount="indefinite"/></circle><circle cx="150" cy="50" r="2" opacity=".4"><animate attributeName="cy" values="50;45;50" dur="2.5s" repeatCount="indefinite"/><animate attributeName="opacity" values="0.4;0.1;0.4" dur="2.5s" repeatCount="indefinite"/></circle></g></svg>
